<!-- net-doctor v2 "Calm Field Guide" icon set
     24px grid · 1.8px ROUND stroke
     Symbols: n-probe n-alert n-book n-crt(sun) n-spark n-copy n-check n-dial -->
<svg width="0" height="0" aria-hidden="true"><defs>
  <symbol id="n-probe" viewBox="0 0 24 24"><path d="M4 14 8 8l4 8 4-10 4 12M3 20h18"/></symbol>
  <symbol id="n-alert" viewBox="0 0 24 24"><path d="M12 3.5 3 19.5h18L12 3.5zM12 10v4M12 16.8v.01"/></symbol>
  <symbol id="n-book" viewBox="0 0 24 24"><path d="M4 5a2 2 0 0 1 2-2h14v16H6a2 2 0 0 0-2 2V5zM4 21a2 2 0 0 1 2-2h14"/><path d="M9 7h6"/></symbol>
  <symbol id="n-crt" viewBox="0 0 24 24"><circle cx="12" cy="12" r="4.2"/><path d="M12 2.5v2.7M12 18.8v2.7M2.5 12h2.7M18.8 12h2.7M5 5l1.9 1.9M17.1 17.1 19 19M19 5l-1.9 1.9M6.9 17.1 5 19"/></symbol>
  <symbol id="n-spark" viewBox="0 0 24 24"><path d="M12 4.5c.7 3.6 2.9 5.8 6.5 6.5-3.6.7-5.8 2.9-6.5 6.5-.7-3.6-2.9-5.8-6.5-6.5 3.6-.7 5.8-2.9 6.5-6.5z"/></symbol>
  <symbol id="n-copy" viewBox="0 0 24 24"><rect x="9" y="9" width="11" height="11" rx="2.5"/><path d="M5 15V4h11"/></symbol>
  <symbol id="n-check" viewBox="0 0 24 24"><path d="M4.5 12.5 10 18 19.5 6.5"/></symbol>
  <symbol id="n-dial" viewBox="0 0 24 24"><path d="M4 7h9M17 7h3M4 12h3M11 12h9M4 17h13M13 5v4M9 10v4M17 15v4"/></symbol>
</defs></svg>