<!-- net-doctor "Bench Oscilloscope" icon set
     24px grid · 1.7px squared stroke (instrument etch)
     Symbols: n-probe n-alert n-book n-crt n-spark n-copy n-check -->
<svg width="0" height="0" aria-hidden="true"><defs>
  <symbol id="n-probe" viewBox="0 0 24 24"><path d="M4 14 8 8l4 8 4-10 4 12M3 20h18"/></symbol>
  <symbol id="n-alert" viewBox="0 0 24 24"><path d="M12 3 2.5 20h19L12 3zM12 9.5V14M12 16.8v.01"/></symbol>
  <symbol id="n-book" viewBox="0 0 24 24"><path d="M4 4h7v16H4zM13 4h7v16h-7M7 8h1.5M16 8h1.5"/></symbol>
  <symbol id="n-crt" viewBox="0 0 24 24"><rect x="3" y="4" width="18" height="13" rx="1.5"/><path d="M6 20h12M6 8l3 3 3-5 3 6 3-4"/></symbol>
  <symbol id="n-spark" viewBox="0 0 24 24"><path d="M12 3v6M12 15v6M3 12h6M15 12h6M12 9l3 3-3 3-3-3 3-3z"/></symbol>
  <symbol id="n-copy" viewBox="0 0 24 24"><rect x="9" y="9" width="11" height="11"/><path d="M5 15V4h11"/></symbol>
  <symbol id="n-check" viewBox="0 0 24 24"><path d="M4.5 12.5 10 18 19.5 6.5"/></symbol>
</defs></svg>